<?xml version="1.0" standalone="no"?>
<!DOCTYPE svg PUBLIC "-//W3C//DTD SVG 20010904//EN"
 "http://www.w3.org/TR/2001/REC-SVG-20010904/DTD/svg10.dtd">
<svg version="1.0" xmlns="http://www.w3.org/2000/svg"
 width="744.000000pt" height="744.000000pt" viewBox="0 0 744.000000 744.000000"
 preserveAspectRatio="xMidYMid meet">
<metadata>
Created by potrace 1.14, written by Peter Selinger 2001-2017
</metadata>
<g transform="translate(0.000000,744.000000) scale(0.100000,-0.100000)"
fill="#000000" stroke="none">
<path d="M3475 7114 c-488 -51 -873 -176 -1252 -407 l-83 -50 33 -37 c17 -21
37 -39 42 -39 6 -1 48 22 95 50 301 181 640 299 1025 355 181 27 553 25 740
-4 337 -52 642 -155 920 -310 55 -30 116 -66 135 -79 19 -13 40 -23 46 -23 7
0 26 18 43 39 l31 39 -89 56 c-325 201 -691 331 -1101 391 -101 15 -499 28
-585 19z"/>
<path d="M1746 6803 c-147 -295 -230 -874 -164 -1153 2 -8 -50 -21 -167 -41
-142 -25 -335 -66 -562 -122 -24 -6 -43 -14 -43 -18 0 -16 121 -159 278 -329
89 -96 162 -178 162 -182 0 -9 -69 -41 -567 -263 -221 -99 -398 -183 -395
-187 4 -4 275 -125 602 -269 327 -144 598 -264 601 -268 4 -3 -328 -258 -737
-566 -409 -308 -740 -561 -736 -563 5 -1 399 36 877 82 478 47 870 84 872 83
1 -2 -97 -126 -217 -277 -121 -151 -214 -276 -208 -277 7 -2 213 44 458 100
245 57 446 100 448 96 2 -3 -56 -152 -128 -329 -72 -177 -129 -325 -126 -327
3 -3 234 96 513 220 280 124 514 227 521 229 10 2 46 -98 123 -346 60 -191
121 -374 135 -406 31 -69 82 -122 147 -150 100 -44 382 -49 512 -9 73 22 123
66 162 142 15 29 77 213 139 410 61 197 114 360 116 362 2 3 227 -95 499 -216
271 -121 508 -227 526 -234 l32 -14 -18 47 c-11 26 -71 175 -135 332 -64 156
-115 287 -114 291 2 3 203 -40 448 -97 245 -57 451 -102 458 -101 8 1 -85 125
-206 277 -121 151 -219 276 -218 277 1 2 229 -19 507 -47 277 -27 670 -65 873
-85 202 -20 370 -35 372 -32 2 2 -329 254 -736 561 -407 306 -740 560 -740
564 0 4 272 126 605 272 332 146 605 267 605 270 0 3 -120 59 -268 124 -531
238 -697 315 -697 325 0 6 66 82 147 169 205 221 299 335 286 347 -17 15 -520
124 -681 147 l-88 12 8 61 c4 33 8 146 7 250 0 249 -32 449 -106 675 -31 95
-94 236 -109 246 -12 7 -120 -68 -210 -147 -69 -61 -204 -204 -282 -298 l-27
-33 -36 28 c-19 16 -54 43 -76 60 l-41 32 -71 -30 c-361 -154 -706 -218 -1176
-218 -465 0 -821 65 -1170 215 l-77 33 -58 -46 c-32 -26 -66 -53 -75 -60 -15
-11 -27 -1 -103 85 -100 115 -208 221 -291 287 -57 46 -130 96 -141 96 -2 0
-20 -30 -39 -67z m146 -85 c247 -210 469 -484 621 -768 25 -47 49 -84 54 -83
4 1 46 9 92 18 65 14 115 16 220 12 143 -5 146 -6 469 -101 281 -82 458 -75
810 33 71 22 163 47 205 55 128 27 340 18 456 -19 12 -3 28 19 65 91 120 237
311 481 539 692 107 99 155 137 164 129 3 -4 -28 -50 -69 -104 -146 -191 -254
-367 -448 -723 -172 -317 -197 -348 -235 -282 -16 26 -16 26 -12 -35 6 -74 32
-135 117 -268 84 -133 103 -187 103 -298 l-1 -87 43 39 c53 49 112 79 237 120
98 33 168 74 188 111 10 19 8 20 -87 20 -100 0 -169 14 -235 45 l-37 18 32 36
c47 52 76 102 118 205 l37 90 7 -37 c4 -21 5 -65 3 -99 -4 -50 -2 -58 8 -43
13 17 47 151 60 233 13 82 24 52 24 -64 0 -68 4 -114 9 -108 26 28 61 213 61
326 0 105 27 30 46 -127 l8 -60 13 45 c8 25 17 91 20 148 3 56 8 100 11 97 2
-2 10 -30 16 -62 l12 -58 23 77 c31 108 51 236 52 348 1 120 12 87 29 -85 17
-165 8 -419 -18 -540 -11 -49 -33 -125 -50 -167 -16 -43 -25 -75 -18 -71 6 4
58 38 115 75 58 37 108 68 112 68 7 0 502 -105 549 -116 23 -6 21 -8 -20 -20
-25 -8 -147 -37 -272 -64 -287 -64 -508 -138 -508 -169 0 -15 111 -106 203
-165 108 -71 285 -156 572 -276 272 -114 484 -214 462 -218 -9 -2 -125 8 -259
22 -360 38 -497 46 -773 46 -812 -1 -1273 -109 -1423 -335 -63 -95 -76 -145
-77 -297 l0 -136 -195 -77 c-107 -42 -238 -88 -290 -102 -173 -45 -278 -26
-635 116 l-150 60 -6 143 c-6 156 -20 208 -79 293 -157 228 -614 335 -1430
335 -271 0 -410 -8 -761 -45 -130 -14 -247 -25 -260 -24 -38 0 113 73 446 214
323 136 530 238 629 309 77 55 156 125 156 138 0 15 -135 73 -235 102 -49 14
-173 44 -275 66 -236 52 -306 71 -288 80 7 4 135 33 284 65 l270 58 114 -76
c63 -42 116 -75 118 -73 2 2 -6 23 -18 46 -31 61 -67 211 -81 337 -13 122 -6
382 14 503 l13 75 7 -130 c4 -71 14 -161 22 -200 35 -161 64 -223 66 -137 1
86 16 73 22 -20 7 -113 26 -196 38 -176 5 7 9 30 9 50 0 44 19 140 30 151 4 5
11 -34 14 -85 9 -117 30 -229 50 -265 14 -26 15 -22 16 84 0 117 13 156 25 75
11 -75 54 -235 66 -246 7 -8 9 6 4 49 -4 33 -3 78 2 100 l9 39 18 -49 c30 -82
94 -200 132 -244 l36 -41 -39 -17 c-74 -31 -139 -43 -236 -43 l-98 0 20 -26
c37 -47 73 -67 195 -109 127 -44 182 -73 233 -124 18 -17 33 -31 35 -31 2 0 3
46 3 103 0 119 8 139 111 304 71 113 98 177 109 261 8 59 2 65 -20 22 -9 -16
-22 -30 -30 -30 -24 0 -71 68 -161 234 -223 412 -335 595 -482 789 -45 59 -82
109 -82 112 0 15 27 -2 92 -57z m246 -2743 c194 -66 352 -123 352 -126 0 -3
-93 -42 -207 -87 -115 -44 -615 -241 -1112 -437 -497 -195 -905 -354 -907
-352 -8 7 1492 1128 1506 1125 9 -2 175 -57 368 -123z m4231 -441 c407 -307
739 -559 737 -561 -4 -4 -2226 871 -2226 877 0 9 714 249 731 246 10 -2 350
-255 758 -562z m-3781 416 c167 -96 320 -315 447 -640 38 -97 132 -380 176
-527 13 -46 28 -83 33 -83 10 0 -1 205 -15 269 -24 107 20 26 52 -97 29 -114
48 -268 63 -508 11 -190 16 -228 35 -266 12 -25 29 -53 39 -61 17 -16 18 -11
18 86 0 106 25 218 58 262 14 18 15 13 16 -63 0 -81 16 -172 29 -172 4 0 13
16 20 35 16 45 29 45 33 -2 4 -44 20 -52 38 -18 7 14 17 25 21 25 5 0 16 -26
25 -57 l17 -58 19 58 c11 31 23 57 27 57 4 0 14 -11 21 -25 18 -35 34 -26 40
21 l5 39 18 -25 c9 -13 17 -30 17 -37 0 -7 4 -13 9 -13 15 0 31 93 31 178 l1
77 24 -47 c35 -66 47 -128 47 -241 -1 -112 8 -115 55 -23 23 45 26 68 34 216
13 235 36 435 63 542 36 141 77 229 55 118 -11 -59 -24 -287 -15 -279 4 4 36
100 72 215 117 373 221 625 325 784 56 85 200 228 267 263 65 35 77 30 23 -8
-66 -45 -203 -195 -253 -275 -61 -99 -110 -219 -163 -403 -24 -84 -60 -208
-80 -276 -19 -69 -47 -192 -60 -275 -14 -83 -34 -205 -45 -271 -53 -327 -140
-493 -282 -539 -122 -39 -375 -40 -504 -1 -150 45 -232 212 -294 596 -48 300
-68 400 -99 502 -16 52 -50 166 -75 253 -70 245 -127 372 -220 492 -45 58
-144 157 -206 205 -46 36 -28 34 38 -3z m778 -389 c18 -11 45 -35 60 -55 l28
-35 1 -196 c0 -107 -1 -195 -3 -195 -1 0 -24 34 -51 75 -70 107 -92 177 -98
313 -5 105 -4 112 13 112 11 0 33 -9 50 -19z m730 -74 c-7 -110 -26 -188 -62
-260 -31 -61 -82 -137 -92 -137 -5 0 -8 315 -3 377 2 21 64 85 96 99 66 29 69
25 61 -79z m-545 -11 c7 -16 8 -55 2 -122 l-8 -98 -29 58 c-28 56 -44 140 -33
171 10 24 56 19 68 -9z m357 -35 c3 -45 -2 -65 -30 -120 l-33 -66 -8 100 c-9
119 -1 148 41 143 25 -3 27 -6 30 -57z m-243 27 c3 -7 1 -57 -3 -111 l-7 -98
-38 50 c-51 66 -58 111 -24 145 28 28 65 34 72 14z m129 -9 c44 -34 35 -83
-28 -163 l-31 -38 -6 98 c-3 55 -4 105 -1 112 6 18 36 15 66 -9z m1578 -301
c139 -105 256 -221 348 -343 67 -90 163 -245 151 -245 -4 0 -300 145 -657 322
l-649 321 285 57 285 56 80 -55 c44 -30 115 -81 157 -113z m-2848 107 c153
-30 281 -56 283 -59 3 -3 -68 -41 -158 -84 -90 -44 -386 -188 -658 -321 -271
-133 -495 -240 -496 -239 -5 5 220 305 297 395 89 105 191 193 333 289 61 40
112 74 115 74 3 0 130 -25 284 -55z m362 -393 l62 -7 -415 -378 c-228 -209
-416 -377 -419 -374 -2 2 47 138 110 303 l114 298 173 87 173 86 70 -4 c39 -3
99 -8 132 -11z m2009 -70 l170 -89 117 -303 c64 -167 116 -305 115 -307 -2 -1
-191 170 -421 379 -230 210 -414 384 -409 385 6 2 62 7 124 12 63 4 119 9 124
9 6 1 87 -38 180 -86z m-1026 9 c-16 -71 -49 -147 -100 -232 -74 -124 -69
-122 -122 -47 -57 81 -93 153 -112 225 -17 64 -19 101 -4 63 17 -42 58 -89
114 -130 53 -39 55 -40 76 -23 70 57 110 99 128 138 12 25 23 45 25 45 2 0 0
-18 -5 -39z m200 -998 c-16 -82 -85 -149 -188 -181 -75 -23 -279 -22 -371 2
-114 30 -176 89 -187 179 l-6 42 30 -40 c43 -58 85 -90 150 -116 84 -32 277
-31 378 1 61 20 78 31 135 90 36 38 66 69 66 69 1 1 -3 -20 -7 -46z"/>
<path d="M3081 5712 c-6 -11 -15 -41 -21 -67 -20 -88 5 -123 160 -233 235
-166 315 -345 191 -429 -49 -33 -74 -29 -33 5 52 43 39 78 -35 89 -23 3 -147
67 -308 157 l-270 151 -73 3 c-91 5 -148 -15 -210 -72 -87 -79 -117 -199 -69
-275 l22 -36 3 63 c2 34 7 62 11 62 4 0 13 -17 19 -38 18 -60 82 -114 226
-191 179 -96 230 -113 339 -114 94 0 96 -10 7 -27 -106 -20 -291 30 -440 120
-44 26 -80 45 -80 41 0 -17 97 -114 151 -150 146 -97 339 -108 535 -30 35 14
72 42 125 96 83 84 151 123 217 123 41 0 42 1 42 34 0 53 20 66 100 66 77 0
90 -10 90 -69 0 -29 2 -31 36 -31 76 0 115 -21 214 -116 89 -84 101 -93 180
-120 77 -26 98 -29 215 -29 130 0 130 0 209 37 58 28 96 56 148 108 39 39 69
73 66 75 -3 3 -40 -15 -84 -40 -80 -46 -173 -84 -254 -106 -67 -17 -188 -15
-230 5 l-35 16 49 -5 c90 -9 172 11 313 79 212 103 274 153 303 241 13 38 13
39 22 15 5 -14 7 -45 3 -70 l-6 -45 21 23 c36 43 44 92 26 154 -23 81 -74 141
-151 179 -60 29 -70 31 -142 27 l-78 -5 -220 -123 c-121 -67 -240 -135 -265
-150 -25 -15 -64 -30 -88 -33 -78 -10 -92 -40 -40 -88 38 -34 20 -39 -30 -9
-40 25 -66 81 -58 128 15 96 98 197 248 304 158 113 177 138 164 220 -7 40
-34 103 -42 96 -2 -2 1 -20 6 -39 6 -18 10 -53 10 -77 0 -53 -26 -81 -119
-131 -86 -46 -200 -139 -262 -216 -36 -45 -55 -61 -60 -53 -15 26 -40 186 -46
287 -10 175 -25 82 -25 -161 l0 -218 -95 0 -95 0 7 95 c7 93 -2 391 -12 381
-3 -2 -9 -52 -13 -111 -9 -107 -36 -264 -48 -277 -4 -4 -30 22 -59 57 -66 81
-167 164 -262 217 -98 53 -121 77 -121 125 0 21 5 55 11 76 12 43 6 59 -10 29z
m-11 -615 c0 -28 -29 -72 -60 -91 -101 -59 -226 40 -237 188 l-6 66 152 -72
c117 -56 151 -76 151 -91z m1555 100 c-18 -126 -90 -207 -186 -207 -35 0 -47
6 -81 40 -64 64 -57 73 112 156 80 39 149 69 153 67 5 -3 5 -28 2 -56z"/>
<path d="M3115 5308 c37 -29 92 -72 123 -96 68 -53 141 -96 149 -89 3 4 -25
38 -63 77 -53 55 -88 81 -157 115 -49 25 -96 45 -105 45 -8 0 16 -24 53 -52z"/>
<path d="M4257 5335 c-76 -32 -174 -102 -220 -158 -20 -25 -37 -48 -37 -51 0
-16 106 51 205 129 154 122 155 123 52 80z"/>
<path d="M1874 4924 c-1 -69 -5 -129 -10 -134 -5 -5 -74 -14 -154 -20 -80 -6
-203 -19 -275 -30 -157 -24 -437 -83 -413 -88 9 -2 99 4 200 13 101 9 306 19
456 22 l272 6 0 41 c-1 92 -43 281 -69 308 -3 4 -7 -49 -7 -118z"/>
<path d="M5477 4971 c-19 -57 -30 -113 -34 -180 l-6 -98 279 -7 c153 -3 329
-11 389 -16 303 -26 315 -22 90 26 -171 36 -347 61 -520 74 -82 7 -152 14
-154 16 -3 3 -7 64 -10 137 l-6 132 -28 -84z"/>
<path d="M2036 4933 c7 -43 13 -117 13 -165 1 -107 11 -118 109 -118 84 0 253
-25 375 -56 198 -50 356 -131 441 -225 25 -28 46 -55 46 -60 0 -5 5 -9 11 -9
16 0 2 67 -21 108 -11 17 -16 32 -12 32 16 0 71 -67 96 -117 14 -29 31 -76 37
-105 11 -49 12 -51 22 -28 5 14 10 57 11 96 1 62 -3 76 -29 119 -56 90 -177
153 -423 221 -168 46 -342 81 -475 96 -104 11 -108 12 -113 37 -22 113 -73
251 -93 251 -4 0 -2 -35 5 -77z"/>
<path d="M5332 4978 c-22 -36 -56 -139 -66 -204 l-7 -40 -111 -12 c-242 -27
-605 -121 -752 -194 -75 -38 -151 -113 -165 -164 -14 -50 -14 -109 0 -159 l12
-40 13 57 c18 76 54 145 98 187 42 40 43 39 16 -14 -11 -22 -20 -54 -20 -73
l0 -34 36 48 c91 119 239 200 473 259 116 29 282 55 363 55 102 0 104 3 112
122 3 56 11 131 17 166 6 35 9 65 6 68 -2 3 -14 -10 -25 -28z"/>
<path d="M3513 4870 c-69 -10 -117 -41 -158 -103 -19 -29 -35 -55 -35 -60 0
-4 21 9 48 31 71 58 118 84 202 109 44 13 64 22 48 22 -14 1 -32 3 -40 5 -7 2
-36 0 -65 -4z"/>
<path d="M3780 4872 c-34 -4 -34 -5 20 -19 82 -21 149 -54 212 -106 32 -26 60
-47 63 -47 7 0 -21 44 -57 92 -47 60 -136 90 -238 80z"/>
<path d="M3453 4740 c-32 -7 -41 -13 -132 -87 -77 -63 -137 -74 -281 -53 -35
5 -66 7 -69 5 -7 -8 143 -74 194 -85 64 -14 86 -8 186 50 62 37 94 50 123 50
40 0 100 30 109 54 5 12 0 13 -21 6 -15 -5 -46 -11 -70 -14 -37 -6 -43 -4 -40
10 2 10 23 27 46 39 34 17 40 24 27 29 -19 7 -29 7 -72 -4z"/>
<path d="M3866 4743 c-15 -4 -10 -10 25 -27 24 -13 45 -30 47 -38 3 -13 -4
-15 -40 -11 -24 2 -55 8 -70 13 -25 8 -26 7 -16 -9 18 -29 63 -51 104 -51 28
0 62 -14 124 -49 107 -62 124 -66 199 -47 58 15 187 73 179 81 -2 2 -37 -1
-78 -7 -89 -12 -175 -6 -217 15 -16 9 -51 35 -79 60 -27 24 -58 49 -69 54 -26
14 -85 22 -109 16z"/>
<path d="M3253 4237 l-71 -126 92 -89 c176 -170 294 -235 426 -235 132 0 244
62 420 231 l92 89 -31 54 c-17 30 -50 87 -74 127 l-42 73 -20 -24 c-11 -14
-33 -41 -48 -61 l-28 -36 -270 0 -271 0 -26 28 c-15 15 -38 42 -52 61 l-26 34
-71 -126z"/>
<path d="M1298 3712 c-246 -180 -450 -331 -455 -336 -12 -13 -17 -16 402 245
431 268 456 282 468 270 5 -5 7 -14 3 -19 -3 -5 -118 -87 -256 -182 -137 -94
-250 -173 -250 -176 0 -6 71 28 416 195 172 83 317 151 323 151 38 0 -9 -38
-155 -124 -91 -54 -164 -99 -162 -101 2 -2 146 47 320 108 174 61 316 113 314
114 -7 7 -501 183 -511 182 -5 0 -211 -147 -457 -327z"/>
<path d="M5342 3951 c-134 -49 -245 -91 -248 -93 -2 -3 139 -55 313 -116 175
-61 319 -110 320 -108 2 2 -73 49 -167 105 -148 89 -188 121 -149 121 5 0 159
-73 342 -161 337 -164 407 -197 395 -184 -3 4 -115 82 -249 174 -231 159 -272
192 -257 207 10 9 79 -31 398 -231 390 -244 497 -309 480 -292 -31 30 -904
660 -919 663 -9 2 -125 -37 -259 -85z"/>
<path d="M4903 3227 c-84 -11 -153 -23 -153 -26 0 -4 138 -67 308 -140 169
-74 331 -145 360 -158 28 -12 52 -21 52 -19 0 2 -79 55 -175 117 -96 62 -175
119 -175 126 0 7 3 13 8 13 28 -1 249 -139 455 -285 42 -31 77 -51 77 -45 0
21 -109 138 -190 203 -121 97 -351 237 -387 236 -15 -1 -97 -11 -180 -22z"/>
<path d="M2123 3161 c-78 -49 -171 -111 -205 -139 -88 -71 -198 -189 -198
-213 0 -4 77 46 172 112 232 162 368 238 368 207 0 -7 -77 -62 -171 -123 -94
-60 -173 -113 -175 -117 -2 -4 94 36 213 88 120 52 282 123 361 157 78 34 142
64 142 67 0 5 -325 51 -355 50 -5 0 -74 -40 -152 -89z"/>
<path d="M2751 2839 c-58 -11 -154 -57 -276 -130 l-100 -61 -57 -127 c-32 -69
-61 -135 -65 -146 -4 -11 40 22 98 74 131 119 290 245 405 322 49 34 93 65 99
70 11 11 -43 10 -104 -2z"/>
<path d="M4565 2834 c11 -8 63 -45 115 -81 122 -86 253 -191 382 -306 56 -51
99 -83 95 -72 -4 11 -33 77 -65 146 l-57 127 -100 61 c-166 100 -274 142 -364
141 -25 -1 -25 -1 -6 -16z"/>
<path d="M1458 6023 c-93 -120 -256 -378 -245 -389 3 -3 33 0 67 7 48 9 65 17
77 38 9 14 45 69 79 122 63 96 63 96 70 187 4 51 5 92 2 92 -3 0 -25 -26 -50
-57z"/>
<path d="M5898 5955 c5 -95 5 -96 58 -178 84 -129 78 -124 134 -131 27 -4 57
-9 66 -13 20 -7 -6 45 -79 162 -47 74 -175 255 -181 255 -2 0 -1 -43 2 -95z"/>
<path d="M986 5098 c-24 -85 -56 -222 -52 -226 3 -2 30 9 62 25 57 28 58 29
76 92 l17 64 -29 37 c-53 67 -56 67 -74 8z"/>
<path d="M6333 5077 l-40 -42 13 -48 c7 -27 14 -50 16 -53 2 -2 30 -15 61 -29
43 -19 57 -21 57 -11 0 22 -50 210 -59 218 -4 5 -25 -11 -48 -35z"/>
<path d="M880 4126 c0 -95 58 -476 76 -495 1 -2 22 11 46 30 24 18 44 34 46
35 2 1 -6 49 -17 107 -11 58 -26 158 -33 221 l-12 115 -45 18 c-25 10 -49 20
-53 21 -5 2 -8 -21 -8 -52z"/>
<path d="M6445 4149 c-22 -10 -44 -20 -49 -22 -4 -1 -12 -45 -17 -97 -5 -52
-19 -144 -30 -204 l-20 -110 23 -18 c43 -35 69 -51 74 -46 15 15 74 406 74
490 0 32 -2 33 -55 7z"/>
<path d="M5960 2837 c-56 -88 -56 -99 -5 -147 l22 -21 25 33 c34 45 130 199
126 203 -2 1 -28 5 -60 8 l-56 5 -52 -81z"/>
<path d="M1256 2901 c-5 -8 82 -153 131 -218 l27 -35 32 39 c18 21 33 41 34
45 0 4 -25 46 -56 93 l-55 85 -54 0 c-30 0 -56 -4 -59 -9z"/>
<path d="M6280 2493 c0 -18 -187 -219 -312 -334 -304 -280 -613 -510 -867
-647 l-93 -50 153 -6 c520 -22 952 -36 1103 -36 369 0 720 42 881 105 l40 15
-49 -6 c-213 -25 -792 -20 -1151 11 -276 24 -466 50 -464 64 0 3 38 36 83 74
188 153 414 385 548 564 62 83 146 238 135 250 -4 3 -7 2 -7 -4z"/>
<path d="M1095 2470 c41 -143 322 -478 620 -738 66 -57 126 -110 133 -117 11
-10 2 -15 -50 -24 -297 -51 -934 -86 -1313 -71 -110 5 -220 11 -245 14 -45 6
-45 6 -15 -8 48 -22 250 -64 391 -81 267 -32 706 -29 1613 11 l143 7 -100 52
c-185 97 -423 264 -667 469 -120 101 -409 381 -480 466 -29 35 -36 40 -30 20z"/>
<path d="M5575 2372 c-60 -59 -127 -122 -148 -140 l-38 -32 22 -50 c12 -27 24
-50 27 -50 17 0 284 250 333 312 l30 37 -43 11 c-24 6 -50 13 -58 15 -9 3 -59
-38 -125 -103z"/>
<path d="M1623 2457 c-24 -5 -43 -13 -43 -16 0 -10 244 -248 311 -304 31 -26
61 -47 66 -47 10 0 43 75 43 95 -1 6 -24 28 -52 50 -28 22 -96 84 -151 138
-56 53 -108 96 -117 96 -8 -1 -34 -6 -57 -12z"/>
<path d="M2165 2001 l-60 -27 95 -59 c332 -206 718 -346 1105 -400 l49 -7 -41
45 c-22 24 -46 53 -51 64 -8 14 -26 22 -58 27 -90 12 -299 68 -424 113 -174
63 -389 167 -535 259 -17 10 -29 8 -80 -15z"/>
<path d="M5125 2014 c-41 -32 -223 -129 -330 -177 -142 -64 -368 -139 -520
-172 -81 -18 -123 -32 -129 -43 -5 -9 -30 -39 -55 -65 -40 -43 -42 -48 -21
-43 14 3 57 10 95 17 282 47 602 157 855 294 104 56 250 147 250 156 0 8 -94
49 -112 49 -7 0 -22 -8 -33 -16z"/>
<path d="M256 1156 c37 -16 44 -32 44 -97 l0 -49 -95 0 c-79 0 -96 3 -104 18
-9 16 -10 16 -17 -3 -4 -11 -13 -35 -20 -54 -20 -48 -17 -58 7 -27 20 25 24
26 125 26 l104 0 0 -233 c0 -250 -4 -271 -53 -280 -12 -2 25 -5 83 -5 75 0 97
2 76 8 -16 5 -33 15 -37 22 -5 7 -9 120 -9 251 l0 237 95 0 c75 0 96 -3 103
-16 7 -12 14 -2 30 41 28 71 27 74 -3 41 -23 -25 -29 -26 -125 -26 l-100 0 0
58 c0 67 7 80 46 92 21 6 0 8 -76 9 -97 0 -103 -1 -74 -13z"/>
<path d="M3438 1138 l-27 -28 28 -28 29 -28 29 26 30 27 -31 29 -31 29 -27
-27z"/>
<path d="M3890 1157 c35 -12 35 -12 38 -79 l3 -68 -96 0 c-83 0 -95 2 -95 17
0 27 -16 4 -39 -54 -23 -58 -19 -66 11 -28 18 24 25 25 119 25 l99 0 -2 -247
-3 -248 -35 -12 c-31 -11 -23 -12 75 -12 98 0 106 1 75 12 l-35 12 -3 248 -2
247 95 0 c78 0 95 -3 95 -15 0 -33 17 -12 38 48 l23 62 -26 -27 c-25 -27 -30
-28 -126 -28 l-100 0 3 68 c3 67 3 67 38 79 31 11 23 12 -75 12 -98 0 -106 -1
-75 -12z"/>
<path d="M4576 1004 c-127 -40 -213 -137 -223 -255 -9 -91 11 -144 77 -211 47
-46 68 -60 124 -77 41 -13 95 -21 135 -21 76 0 177 22 196 41 14 16 28 119 16
119 -5 0 -11 -13 -14 -29 -26 -126 -240 -152 -366 -44 -114 97 -121 274 -16
391 60 66 111 86 203 80 83 -6 125 -28 158 -83 l24 -40 0 55 0 55 -77 18 c-94
21 -171 21 -237 1z"/>
<path d="M7016 1004 c-43 -43 -19 -116 41 -122 62 -6 101 62 63 111 -25 31
-78 37 -104 11z m88 -10 c36 -35 6 -104 -45 -104 -26 0 -61 49 -53 74 13 44
68 61 98 30z"/>
<path d="M7030 950 c0 -25 4 -39 10 -35 6 4 8 11 5 16 -11 16 17 10 30 -8 10
-14 12 -10 11 23 -1 35 -4 39 -28 42 -27 3 -28 1 -28 -38z m45 20 c3 -5 -3
-10 -15 -10 -12 0 -18 5 -15 10 3 6 10 10 15 10 5 0 12 -4 15 -10z"/>
<path d="M740 997 l35 -12 0 -255 0 -255 -35 -12 c-31 -11 -23 -12 75 -12 79
1 102 3 81 9 -16 5 -33 15 -37 22 -5 7 -9 64 -9 126 l0 112 175 0 176 0 -3
-122 -3 -123 -35 -12 c-31 -11 -23 -12 75 -12 98 0 106 1 75 12 l-35 12 0 255
0 255 35 12 c31 11 23 12 -75 12 -79 -1 -102 -3 -81 -9 41 -13 46 -24 46 -117
l0 -83 -175 0 -175 0 0 83 c0 93 5 104 46 117 21 6 -2 8 -81 9 -98 0 -106 -1
-75 -12z m460 -237 c0 -6 -65 -10 -175 -10 -110 0 -175 4 -175 10 0 6 65 10
175 10 110 0 175 -4 175 -10z"/>
<path d="M1515 999 c53 -16 55 -24 55 -269 0 -243 -4 -264 -53 -273 -12 -2 64
-5 169 -6 l191 -1 21 56 21 57 -39 -38 c-38 -37 -42 -39 -123 -43 -128 -7
-128 -7 -125 141 l3 122 108 3 c59 1 107 7 107 12 0 5 -48 11 -107 12 l-108 3
-3 103 -3 102 106 0 c92 0 108 -3 125 -20 11 -11 20 -27 20 -37 0 -9 3 -14 6
-10 4 3 3 27 0 52 l-7 45 -197 -1 c-133 0 -187 -4 -167 -10z"/>
<path d="M2320 1003 c14 -3 30 -9 36 -14 6 -5 14 -56 18 -113 10 -139 29 -225
67 -297 32 -59 118 -149 144 -149 30 0 106 84 141 156 l37 74 33 -68 c30 -63
117 -162 142 -162 20 0 92 61 120 102 58 85 92 209 92 340 0 99 6 116 44 127
23 7 5 9 -74 9 -82 0 -98 -2 -73 -9 42 -12 47 -34 39 -163 -13 -183 -46 -295
-109 -357 -27 -27 -31 -29 -51 -16 -37 24 -82 102 -101 173 -11 42 -20 122
-23 204 -5 146 -3 153 48 163 14 2 -24 5 -85 5 -98 1 -106 0 -75 -11 l35 -12
3 -70 c7 -153 -28 -323 -83 -406 -37 -57 -57 -64 -93 -34 -64 54 -112 229
-112 410 0 98 5 109 50 118 14 2 -24 4 -85 4 -60 0 -99 -2 -85 -4z"/>
<path d="M3390 997 l35 -12 0 -255 0 -255 -35 -12 c-31 -11 -23 -12 75 -12 79
1 102 3 81 9 -16 5 -33 15 -37 22 -5 7 -9 119 -9 248 0 129 4 241 9 248 4 7
21 17 37 22 21 6 -2 8 -81 9 -98 0 -106 -1 -75 -12z"/>
<path d="M5078 999 c21 -6 36 -19 42 -35 6 -14 10 -119 10 -234 0 -115 -4
-220 -10 -234 -6 -16 -21 -29 -42 -35 -26 -7 -9 -9 77 -9 78 0 102 2 81 8 -16
5 -33 15 -37 22 -5 7 -9 64 -9 126 l0 112 175 0 176 0 -3 -122 -3 -123 -35
-12 c-31 -11 -23 -12 75 -12 98 0 106 1 75 12 l-35 12 0 255 0 255 35 12 c31
11 23 12 -75 12 -79 -1 -102 -3 -81 -9 41 -13 46 -24 46 -117 l0 -83 -175 0
-175 0 0 83 c0 93 5 104 46 117 21 6 -3 8 -81 8 -86 0 -103 -2 -77 -9z m462
-239 c0 -6 -65 -10 -175 -10 -110 0 -175 4 -175 10 0 6 65 10 175 10 110 0
175 -4 175 -10z"/>
<path d="M5855 999 c53 -16 55 -24 55 -269 0 -243 -4 -264 -53 -273 -12 -2 64
-5 169 -6 l191 -1 21 56 21 57 -39 -38 c-38 -37 -42 -39 -123 -43 -128 -7
-128 -7 -125 141 l3 122 108 3 c59 1 107 7 107 12 0 5 -48 11 -107 12 l-108 3
-3 103 -3 102 106 0 c92 0 108 -3 125 -20 11 -11 20 -27 20 -37 0 -9 3 -14 6
-10 4 3 3 27 0 52 l-7 45 -197 -1 c-133 0 -187 -4 -167 -10z"/>
<path d="M6436 996 c17 -8 34 -21 38 -31 3 -9 6 -115 6 -235 0 -120 -3 -226
-6 -235 -4 -10 -21 -23 -38 -31 -29 -12 -23 -13 74 -13 76 1 97 3 76 9 -16 5
-33 15 -37 22 -5 7 -9 57 -9 111 l0 97 49 0 c54 0 63 -6 228 -155 113 -103
177 -149 249 -181 78 -35 156 -41 222 -19 57 18 82 39 30 24 -66 -18 -130 -11
-203 25 -87 41 -143 84 -289 217 l-114 104 26 14 c111 56 143 173 67 240 -49
43 -91 51 -255 51 -131 -1 -142 -2 -114 -14z m271 -27 c90 -44 104 -151 27
-218 -33 -29 -40 -31 -114 -31 l-80 0 0 123 c0 82 4 127 12 135 19 19 107 14
155 -9z"/>
</g>
</svg>
