<svg width="28" height="11" viewBox="0 0 28 11" fill="none" xmlns="http://www.w3.org/2000/svg">
<path d="M16.7497 9.33645L17.1375 8.74661L18.8113 10.7053H21.0855L18.1259 7.2442L20.7667 3.23778H18.7104L16.7497 6.21478V0.611352H15.06V10.7053H16.7497V9.33645ZM10.2353 9.33645L10.6231 8.75218L12.2969 10.7109H14.5711L11.6115 7.2442L14.2523 3.23778H12.196L10.2353 6.21478V0.611352H8.54556V10.7053H10.2353V9.33645ZM20.1503 6.87695C20.1503 9.04153 21.8188 10.7999 23.8751 10.7999C25.9315 10.7999 27.5999 9.04153 27.5999 6.87695C27.5999 4.71237 25.9315 2.954 23.8751 2.954C21.8188 2.954 20.1503 4.7068 20.1503 6.87695ZM4.12469 2.954C2.06835 2.954 0.399902 4.7068 0.399902 6.87695C0.399902 9.04153 2.06835 10.7999 4.12469 10.7999C6.18103 10.7999 7.84948 9.04153 7.84948 6.87695C7.8548 4.7068 6.18635 2.954 4.12469 2.954ZM4.09281 0.399902C3.62522 0.399902 3.24796 0.79498 3.24796 1.29022C3.24796 1.77989 3.62522 2.18053 4.09281 2.18053C4.5604 2.18053 4.93766 1.77989 4.93766 1.29022C4.93766 0.79498 4.5604 0.399902 4.09281 0.399902ZM6.15978 0.399902C5.69219 0.399902 5.31493 0.79498 5.31493 1.29022C5.31493 1.77989 5.69219 2.18053 6.15978 2.18053C6.62737 2.18053 7.00463 1.77989 7.00463 1.29022C7.00994 0.79498 6.62737 0.399902 6.15978 0.399902ZM2.05773 0.399902C1.59013 0.399902 1.21287 0.79498 1.21287 1.29022C1.21287 1.77989 1.59013 2.18053 2.05773 2.18053C2.52532 2.18053 2.90258 1.77989 2.90258 1.29022C2.90258 0.79498 2.52532 0.399902 2.05773 0.399902ZM2.08961 6.87695C2.08961 5.69728 3.00354 4.73463 4.12469 4.73463C5.24585 4.73463 6.15978 5.69728 6.15978 6.87695C6.15978 8.05662 5.24585 9.01927 4.12469 9.01927C3.00354 9.01927 2.08961 8.05662 2.08961 6.87695ZM21.84 6.87695C21.84 5.69728 22.754 4.73463 23.8751 4.73463C24.9963 4.73463 25.9102 5.69728 25.9102 6.87695C25.9102 8.05662 24.9963 9.01927 23.8751 9.01927C22.754 9.01927 21.84 8.05662 21.84 6.87695Z" fill="black"/>
</svg>
