<svg width="15" height="15" viewBox="0 0 15 15" fill="none" xmlns="http://www.w3.org/2000/svg">
<g clip-path="url(#clip0_1910_2)">
<path d="M13.9653 8.22422L10.4822 8.63455L8.4377 7.45415L10.4822 6.27375L13.9653 6.68411C13.9844 6.68637 14.0035 6.68748 14.0224 6.68748C14.2641 6.68748 14.4729 6.50654 14.5019 6.2606C14.5331 5.99546 14.3435 5.7552 14.0784 5.72397L11.8826 5.46527L13.2505 4.67552C13.4817 4.54201 13.5609 4.24638 13.4274 4.01517C13.294 3.78396 12.9983 3.70471 12.7671 3.83821L11.3992 4.62797L12.273 2.59702C12.3785 2.35178 12.2653 2.06745 12.02 1.96193C11.7749 1.85643 11.4905 1.96966 11.3849 2.2149L9.99881 5.43648L7.99599 6.59282V4.23193L10.0928 1.42075C10.2525 1.20674 10.2084 0.903868 9.99439 0.744259C9.78038 0.58465 9.4775 0.628712 9.3179 0.842726L7.99599 2.61495V1.19801C7.99599 0.931027 7.77955 0.714611 7.51259 0.714611C7.24564 0.714611 7.02919 0.931027 7.02919 1.19801V2.61498L5.70726 0.842726C5.54762 0.628712 5.24472 0.584679 5.03077 0.744259C4.81675 0.903898 4.77269 1.20677 4.9323 1.42075L7.02919 4.23196V6.64093L4.94294 5.43642L3.55681 2.2149C3.45129 1.96969 3.16696 1.85643 2.92172 1.96193C2.67647 2.06745 2.56321 2.35181 2.66874 2.59702L3.5426 4.62797L2.31547 3.91948C2.08426 3.78604 1.78863 3.86523 1.65512 4.09644C1.52165 4.32765 1.60084 4.62328 1.83208 4.75679L3.05921 5.46527L0.863405 5.72397C0.598268 5.7552 0.408659 5.99546 0.439889 6.2606C0.468864 6.50654 0.677662 6.68751 0.919362 6.68748C0.938229 6.68748 0.95733 6.68637 0.97652 6.68411L4.45957 6.27375L6.50411 7.45412L4.45957 8.63455L0.976549 8.22422C0.711325 8.19302 0.471149 8.38257 0.439918 8.64773C0.408688 8.91287 0.598297 9.15314 0.863434 9.18437L3.05921 9.44306L1.83211 10.1515C1.60089 10.285 1.52168 10.5806 1.65515 10.8118C1.74468 10.9669 1.90716 11.0536 2.07424 11.0536C2.15625 11.0536 2.23936 11.0327 2.31547 10.9888L3.54263 10.2803L2.66874 12.3112C2.56321 12.5565 2.6765 12.8408 2.92172 12.9463C2.98197 12.9724 3.04692 12.9858 3.11255 12.9858C3.29985 12.9858 3.47812 12.8764 3.55684 12.6934L4.94299 9.47183L7.02922 8.26734V10.6282L4.93233 13.4394C4.77272 13.6534 4.81678 13.9563 5.0308 14.1159C5.1141 14.1782 5.21539 14.2119 5.31946 14.2118C5.46685 14.2118 5.6124 14.1446 5.70732 14.0174L7.02925 12.2452V13.8247C7.02925 14.0917 7.24567 14.3081 7.51265 14.3081C7.77963 14.3081 7.99605 14.0917 7.99605 13.8247V12.2452L9.31795 14.0174C9.47756 14.2315 9.78049 14.2755 9.99445 14.1158C10.2085 13.9562 10.2526 13.6534 10.0929 13.4394L7.99605 10.6282V8.31545L9.99887 9.47177L11.385 12.6933C11.4637 12.8763 11.642 12.9858 11.8293 12.9858C11.8949 12.9858 11.9599 12.9723 12.0201 12.9463C12.2654 12.8408 12.3786 12.5564 12.2731 12.3112L11.3992 10.2802L12.7672 11.07C12.8405 11.1125 12.9237 11.1349 13.0084 11.1349C13.1754 11.1349 13.338 11.0481 13.4275 10.8931C13.561 10.6619 13.4818 10.3662 13.2506 10.2328L11.8827 9.443L14.0784 9.18431C14.3436 9.15308 14.5332 8.91278 14.5019 8.64768C14.4707 8.38263 14.2306 8.19299 13.9653 8.22422Z" fill="#59CAFC"/>
</g>
<defs>
<clipPath id="clip0_1910_2">
<rect width="15" height="15" fill="white"/>
</clipPath>
</defs>
</svg>
