<svg width="17" height="17" viewBox="0 0 17 17" fill="none" xmlns="http://www.w3.org/2000/svg">
<g clip-path="url(#clip0_1910_4)">
<path d="M16.4625 10.1708L15.4316 9.14042H15.7636C16.3857 9.14042 17.0543 8.94864 17.0543 8.52895V8.52683V8.5247C17.0543 8.10502 16.3849 7.91323 15.7626 7.91323H15.4353L16.3605 6.98833C16.8006 6.54872 17.1385 5.94017 16.8421 5.64294C16.7911 5.59247 16.6997 5.53244 16.5504 5.53244C16.2657 5.53244 15.8622 5.75981 15.497 6.12452L13.938 7.68373C13.8628 7.75838 13.7956 7.8362 13.7327 7.91323H9.97408L12.641 5.24636C12.6452 5.24317 12.6497 5.23786 12.6534 5.23388L12.6614 5.22644C12.8072 5.24896 12.9545 5.26015 13.1021 5.25991H15.3062C15.9289 5.25991 16.5985 5.06866 16.5985 4.64897C16.5985 4.22981 15.9291 4.03803 15.3073 4.03803H13.8493L14.0836 3.80428C14.3072 3.58063 14.486 3.33413 14.5864 3.11047C14.6573 2.95189 14.6783 2.82838 14.6735 2.7301V2.72797C14.6735 2.67192 14.6608 2.62385 14.6459 2.58506C14.6443 2.58135 14.6424 2.57922 14.6414 2.57656C14.6237 2.53288 14.598 2.49295 14.5654 2.45889H14.5641C14.5141 2.40789 14.4222 2.3476 14.273 2.3476C13.9877 2.3476 13.5837 2.57497 13.2184 2.94074L12.9868 3.17236V1.8631C12.9868 1.24127 12.7961 0.571893 12.3759 0.571893C11.9562 0.571893 11.7655 1.24127 11.7655 1.8631L11.766 4.06831C11.766 4.17377 11.7732 4.27577 11.7833 4.37617L9.14639 7.0117V3.3328V3.30119C9.25955 3.21911 9.37138 3.12667 9.48161 3.01697L11.0408 1.45828C11.481 1.01761 11.8188 0.40933 11.5221 0.113158C11.4722 0.0624241 11.3811 0.00186157 11.2318 0.00186157C10.9468 0.00186157 10.5425 0.229237 10.1776 0.594471L9.14666 1.6251V1.2936C9.14666 0.671236 8.95621 0.00186157 8.53652 0.00186157L8.53493 0.00239282L8.53174 0.00186157C8.11258 0.00186157 7.9208 0.672033 7.9208 1.29413V1.62138L6.99536 0.696205C6.63066 0.331237 6.22664 0.104127 5.94216 0.104127C5.79288 0.104127 5.7015 0.16469 5.6505 0.214893C5.56949 0.295908 5.45978 0.487424 5.62952 0.866471C5.73046 1.09013 5.90789 1.33663 6.13235 1.55975L7.69157 3.11897C7.76674 3.19414 7.84457 3.25975 7.92107 3.32297V7.0032L5.29935 4.38122C5.2951 4.37644 5.28978 4.37166 5.28553 4.36767L5.27757 4.36024C5.30014 4.2168 5.31183 4.06752 5.31183 3.91956V1.71541C5.31183 1.09331 5.12111 0.423674 4.70089 0.423674C4.28174 0.423674 4.09049 1.09252 4.09049 1.71488V3.17263L3.85621 2.93835C3.49071 2.57285 3.08722 2.34627 2.80353 2.34627C2.65319 2.34627 2.56182 2.4063 2.51135 2.45703H2.51055C2.50975 2.45889 2.51055 2.45916 2.50683 2.46022C2.50577 2.46181 2.50577 2.46314 2.50497 2.46447C2.47581 2.49495 2.45234 2.53039 2.43564 2.56913C2.42714 2.58799 2.42236 2.60738 2.41785 2.62677C2.4128 2.64111 2.41068 2.65678 2.40775 2.67378C2.35622 2.99519 2.63725 3.45339 2.98921 3.80588L3.22136 4.0375H1.91289C1.29027 4.0375 0.62116 4.22875 0.62116 4.64844C0.62116 5.06813 1.29053 5.25831 1.91289 5.25831H4.11918C4.22436 5.25831 4.32503 5.25194 4.42438 5.24105L7.09922 7.91589H3.30743C3.21945 7.79751 3.12324 7.6855 3.01949 7.58067L1.46027 6.02199C1.09557 5.65675 0.691816 5.42991 0.406535 5.42991C0.257785 5.42991 0.165878 5.49047 0.115675 5.54067C-0.181293 5.83684 0.156582 6.44539 0.596988 6.885L1.62761 7.91563H1.29611C0.673754 7.91563 0.00437848 8.10741 0.00437848 8.52709L0.00544098 8.52922L0.00437848 8.53134C0.00437848 8.95103 0.67455 9.14281 1.29664 9.14281H1.62443L0.699253 10.068C0.259113 10.5079 -0.0787622 11.1161 0.217675 11.4134C0.268144 11.4636 0.359519 11.5236 0.509332 11.5236C0.794082 11.5236 1.1981 11.2962 1.56253 10.9315L3.12175 9.37231C3.19639 9.29794 3.26413 9.22011 3.32708 9.14281H7.01741L4.43075 11.7289C4.42544 11.7337 4.42093 11.739 4.41508 11.7443L4.40977 11.7505C4.26411 11.7282 4.11698 11.717 3.96963 11.717H1.76414C1.14232 11.717 0.471878 11.9077 0.471878 12.3274C0.471878 12.7471 1.14205 12.9383 1.76414 12.9383H3.22136L2.98708 13.1726C2.76343 13.396 2.58572 13.6425 2.48478 13.8664C2.41333 14.0247 2.39341 14.1485 2.39766 14.2471V14.2487C2.40085 14.3052 2.41068 14.3528 2.42502 14.3921C2.42695 14.3945 2.42839 14.3973 2.42927 14.4003C2.45078 14.4527 2.47974 14.4917 2.50603 14.5175C2.5071 14.518 2.5071 14.5191 2.50816 14.5196C2.50922 14.5207 2.50922 14.5207 2.50922 14.5212C2.55996 14.5714 2.65107 14.6314 2.80141 14.6314C3.0851 14.6314 3.48938 14.4048 3.85514 14.0391L4.08624 13.808V15.1159C4.08624 15.7385 4.27749 16.4077 4.69771 16.4077C4.81113 16.4077 5.02443 16.3492 5.17211 15.9622C5.26003 15.7332 5.30758 15.4325 5.30758 15.1157V12.9118C5.30758 12.8063 5.30041 12.7038 5.29032 12.6039L7.92107 9.97316V13.7578C7.80871 13.8399 7.69528 13.932 7.58585 14.042L6.02716 15.6004C5.58649 16.0411 5.24808 16.6494 5.54558 16.9458C5.59605 16.9965 5.68796 17.0571 5.83724 17.0571C6.12252 17.0571 6.52547 16.8297 6.89044 16.4648L7.92107 15.4339V15.7654C7.92107 16.388 8.11285 17.0571 8.532 17.0571V17.0566L8.53413 17.0571C8.95382 17.0571 9.14454 16.3869 9.14454 15.7648V15.4379L10.0697 16.3628C10.4347 16.7277 10.839 16.9548 11.124 16.9548C11.2733 16.9548 11.3652 16.8943 11.4151 16.8441C11.4961 16.7631 11.6063 16.5715 11.4361 16.1928C11.3362 15.9694 11.1577 15.7223 10.9338 15.4992L9.37457 13.9403C9.29913 13.8651 9.22236 13.7995 9.14454 13.7363V9.96492L11.7763 12.5967C11.7795 12.6005 11.7838 12.6039 11.7875 12.6082L11.7963 12.6167C11.774 12.7623 11.7628 12.9094 11.7628 13.0568V15.2615C11.7628 15.8841 11.9541 16.5532 12.3737 16.5532C12.7929 16.5532 12.9847 15.8838 12.9847 15.2615V13.8043L13.219 14.0383C13.5837 14.4038 13.9882 14.6312 14.273 14.6312C14.4222 14.6312 14.5139 14.5706 14.5641 14.5199C14.5641 14.5188 14.5651 14.5183 14.5651 14.5183C14.5985 14.4845 14.6249 14.4444 14.6427 14.4003L14.6478 14.3897C14.6629 14.3509 14.6714 14.3047 14.6754 14.2508V14.2433C14.6786 14.1453 14.6576 14.0218 14.5883 13.8651C14.4884 13.6414 14.3099 13.3947 14.0854 13.1707L13.8538 12.9397H15.1628C15.7849 12.9397 16.454 12.7479 16.454 12.3292C16.454 11.909 15.7846 11.7183 15.1628 11.7183H12.9555C12.854 11.7183 12.7515 11.7255 12.6503 11.7353L10.0578 9.14334H13.7529C13.8395 9.25969 13.9372 9.37337 14.0413 9.47856L15.5998 11.0372C15.965 11.4022 16.369 11.6293 16.6538 11.6293C16.803 11.6293 16.8941 11.5688 16.9449 11.5186C17.2416 11.2224 16.9034 10.6141 16.4633 10.174" fill="#1B75BB"/>
<path d="M9.6553 1.29173V1.62323L10.6859 0.592609C10.9431 0.33575 11.2172 0.153 11.4565 0.0640156C11.4034 0.0294844 11.3295 0 11.227 0C10.942 0 10.5377 0.227375 10.1727 0.592609L9.64893 1.11748C9.65185 1.17512 9.6553 1.23356 9.6553 1.29173Z" fill="#1C679A"/>
<path d="M8.43042 1.61952V1.29227C8.43042 0.814141 8.54437 0.311578 8.78689 0.102531C8.71358 0.0393125 8.62937 0 8.53268 0L8.53109 0.00053125L8.5279 0C8.14806 0 7.95734 0.54825 7.92334 1.11377L8.43042 1.61952Z" fill="#1C679A"/>
<path d="M12.0698 0.72171C12.0202 0.836477 11.9591 0.945939 11.8875 1.04843C11.8041 1.2843 11.7614 1.57649 11.7614 1.86124L11.7619 4.06646C11.7619 4.17191 11.7691 4.27391 11.7792 4.37432L9.65576 6.49719V7.00985L12.2913 4.37432C12.2807 4.27204 12.2751 4.16929 12.2746 4.06646V1.86124C12.2746 1.38498 12.3882 0.883741 12.6286 0.673897C12.5553 0.60935 12.4701 0.570038 12.3718 0.570038C12.2533 0.570038 12.1534 0.629272 12.0698 0.72171Z" fill="#1C679A"/>
<path d="M4.62866 5.25645H4.43848L7.09473 7.9127H7.60791L4.93307 5.23785C4.83192 5.24941 4.7302 5.25526 4.6284 5.25539" fill="#1C679A"/>
<path d="M5.75155 1.09012C5.85036 1.24711 5.97759 1.40808 6.1282 1.55815L7.68742 3.11737C7.76259 3.19255 7.84042 3.25815 7.91692 3.32137V6.48842L8.43037 7.00161V3.32111C8.35019 3.25737 8.27357 3.18927 8.20087 3.11711L6.64112 1.55789C6.41747 1.33476 6.2387 1.08826 6.13883 0.864608C5.96803 0.485827 6.07853 0.294046 6.15981 0.21303C6.17849 0.195428 6.19877 0.1796 6.22037 0.165749C6.11944 0.127233 6.02275 0.102264 5.93828 0.102264C5.789 0.102264 5.69762 0.162827 5.64662 0.21303C5.58606 0.273858 5.50903 0.396311 5.54648 0.613858C5.63812 0.733921 5.70586 0.899936 5.75155 1.09012Z" fill="#1C679A"/>
<path d="M13.1621 11.7327C13.2636 11.7228 13.3658 11.7157 13.467 11.7157H13.144L13.1621 11.7327Z" fill="#1C679A"/>
<path d="M13.1536 5.24743L13.1411 5.26098H13.6153C13.467 5.26098 13.3175 5.24982 13.1746 5.22751L13.1669 5.23495C13.1621 5.23893 13.1576 5.24424 13.1536 5.24743Z" fill="#1C679A"/>
<path d="M13.7324 7.91349H14.2453C14.3088 7.83619 14.376 7.75863 14.4501 7.68399L16.0094 6.12477C16.2657 5.86844 16.5403 5.68569 16.7799 5.59591C16.7112 5.55291 16.6315 5.53094 16.5504 5.53269C16.2657 5.53269 15.8622 5.76006 15.497 6.12477L13.938 7.68399C13.8626 7.75836 13.7956 7.83619 13.7324 7.91349Z" fill="#1C679A"/>
<path d="M16.1098 11.0343L14.5511 9.47563C14.4471 9.3712 14.351 9.25915 14.2637 9.14041H13.75C13.8366 9.25676 13.9343 9.37044 14.0385 9.47563L15.5969 11.0343C15.9621 11.3993 16.3661 11.6264 16.6509 11.6264C16.754 11.6264 16.8273 11.5977 16.8815 11.5629C16.6403 11.4739 16.3667 11.2912 16.1098 11.0343Z" fill="#1C679A"/>
<path d="M4.91944 11.7486L4.92502 11.7425L4.93989 11.7271L7.52708 9.14096H7.01389L4.43945 11.7151H4.47823C4.62566 11.7151 4.776 11.7266 4.91944 11.7486Z" fill="#1C679A"/>
<path d="M13.4971 3.17023L13.7287 2.9386C13.985 2.68174 14.2597 2.49846 14.4998 2.40921C14.431 2.3659 14.351 2.34374 14.2698 2.34546C14.0562 2.34546 13.7765 2.47376 13.4971 2.68998V3.17023Z" fill="#1C679A"/>
<path d="M0.788007 11.4591C0.76617 11.4452 0.745633 11.4294 0.726648 11.4118C0.429414 11.1146 0.768617 10.5063 1.20796 10.0667L2.13366 9.1415H1.80615C1.18352 9.1415 0.513351 8.94971 0.513351 8.53003C0.513351 8.52949 0.514945 8.52843 0.514945 8.5279C0.514945 8.52737 0.513351 8.52631 0.513351 8.52578C0.513351 8.10609 1.18352 7.91431 1.80562 7.91431H2.13712L1.10702 6.88368C0.66582 6.44407 0.327945 5.83553 0.624914 5.53935C0.640585 5.52368 0.662101 5.50774 0.686273 5.49154C0.58507 5.45382 0.488382 5.42859 0.403117 5.42859C0.254367 5.42859 0.16246 5.48915 0.112257 5.53935C-0.184711 5.83553 0.153164 6.44407 0.59357 6.88368L1.62419 7.91431H1.29243C0.67007 7.91431 0.000694892 8.10609 0.000694892 8.52578L0.00175739 8.5279L0.000694892 8.53003C0.000694892 8.94971 0.670867 9.1415 1.29296 9.1415H1.62074L0.69557 10.0667C0.255429 10.5063 -0.0824457 11.1146 0.213992 11.4118C0.264461 11.462 0.355835 11.522 0.505648 11.522C0.590117 11.522 0.686804 11.4963 0.788007 11.4591Z" fill="#1C679A"/>
<path d="M8.43042 15.7622V15.4307L7.92334 15.9367C7.95654 16.5036 8.14779 17.0539 8.5279 17.0539V17.0534L8.53003 17.0539C8.62671 17.0539 8.71092 17.0146 8.78423 16.9514C8.54145 16.7424 8.42776 16.2403 8.42776 15.7622" fill="#1C679A"/>
<path d="M6.05411 16.9426C5.75794 16.6462 6.09555 16.0379 6.53569 15.5972L8.09491 14.0388C8.20461 13.9288 8.31697 13.8364 8.43013 13.7546V13.7373V9.96997L7.91668 10.4834V13.7538C7.80432 13.8359 7.69089 13.928 7.58146 14.038L6.02277 15.5964C5.5821 16.0371 5.24369 16.6454 5.54119 16.9418C5.59166 16.9926 5.68357 17.0531 5.83285 17.0531C5.91732 17.0531 6.01453 17.0274 6.11494 16.9891C6.09307 16.9756 6.07268 16.9599 6.05411 16.9421" fill="#1C679A"/>
<path d="M10.5814 16.3598L9.6565 15.4349V15.7619C9.6565 15.8214 9.65278 15.8812 9.65039 15.9407L10.0685 16.3598C10.4335 16.7248 10.8377 16.9519 11.1227 16.9519C11.2253 16.9519 11.2994 16.9232 11.3528 16.8884C11.1127 16.7989 10.8377 16.6167 10.5814 16.3598Z" fill="#1C679A"/>
<path d="M12.2742 15.2575V13.0528C12.2742 12.9057 12.2859 12.7553 12.3085 12.6127L12.2994 12.6042C12.2957 12.5999 12.2917 12.5965 12.288 12.5928L9.65674 9.96094V10.4736L11.7754 12.593C11.7786 12.5967 11.7828 12.6002 11.7865 12.6044L11.7953 12.6129C11.773 12.7586 11.7618 12.9057 11.7618 13.0531V15.2578C11.7618 15.5457 11.8048 15.8403 11.8909 16.0783C11.9108 16.1157 11.9323 16.1529 11.9483 16.1888C11.964 16.2233 11.9746 16.2539 11.9855 16.2852C12.0816 16.4459 12.2094 16.5495 12.3728 16.5495C12.471 16.5495 12.556 16.5102 12.6291 16.4454C12.3879 16.2358 12.2742 15.734 12.2742 15.2575Z" fill="#1C679A"/>
<path d="M13.7303 14.0351L13.4966 13.8011V14.2819C13.7776 14.4994 14.0571 14.6282 14.2714 14.6282C14.3739 14.6282 14.4478 14.599 14.5009 14.5642C14.2608 14.4752 13.9867 14.292 13.7303 14.0351Z" fill="#1C679A"/>
<path d="M1.90941 5.25646H2.42154C1.79997 5.25646 1.13086 5.06627 1.1298 4.64658C1.1298 4.22663 1.79997 4.03564 2.42154 4.03564H1.90941C1.28679 4.03564 0.617676 4.22689 0.617676 4.64658C0.617676 5.06627 1.28679 5.25646 1.90941 5.25646Z" fill="#1C679A"/>
<path d="M4.36529 2.93516L4.59957 3.16945V1.7117C4.59957 1.23516 4.71352 0.733399 4.95471 0.523821C4.8806 0.459274 4.79613 0.420227 4.69732 0.420227C4.27816 0.420227 4.08691 1.08907 4.08691 1.71143V2.68787C4.18015 2.76118 4.27418 2.84379 4.36529 2.93516Z" fill="#1C679A"/>
<path d="M4.59597 15.1133V13.8053L4.36408 14.0364C4.27578 14.1255 4.18172 14.2088 4.08252 14.2856V15.1133C4.08252 15.7359 4.27377 16.405 4.69399 16.405C4.75694 16.405 4.85257 16.3845 4.94925 16.3009C4.70833 16.091 4.59597 15.5898 4.59597 15.1133Z" fill="#1C679A"/>
<path d="M3.21665 4.03539H3.7293L3.49821 3.80377C3.14519 3.45128 2.86363 2.99308 2.91623 2.67167C2.91761 2.65577 2.92082 2.64009 2.92579 2.62492C2.93004 2.60553 2.93588 2.58614 2.94359 2.56728C2.96351 2.52159 2.98874 2.48786 3.01291 2.46262C3.01451 2.46103 3.01451 2.46236 3.0161 2.45837C3.01663 2.45731 3.01823 2.45678 3.01637 2.45519H3.01743C3.0331 2.43925 3.05462 2.42305 3.07879 2.40737C2.97679 2.37019 2.8801 2.34442 2.79616 2.34442C2.64582 2.34442 2.55444 2.40445 2.50398 2.45519H2.50344C2.50265 2.45705 2.50318 2.45731 2.49973 2.45837C2.49866 2.45997 2.49866 2.4613 2.49787 2.46262C2.46871 2.4931 2.44523 2.52854 2.42854 2.56728C2.42004 2.58614 2.41526 2.60553 2.41074 2.62492C2.40569 2.63927 2.40357 2.65494 2.40065 2.67194C2.34912 2.99334 2.63015 3.45155 2.9821 3.80403L3.21426 4.03539" fill="#1C679A"/>
<path d="M0.98198 12.325C0.98198 11.9053 1.65136 11.7146 2.27371 11.7146H1.76053C1.1387 11.7146 0.468262 11.9053 0.468262 12.325C0.468262 12.7447 1.13843 12.9359 1.76053 12.9359H2.27371C1.65136 12.9359 0.98198 12.7447 0.98198 12.325Z" fill="#1C679A"/>
<path d="M3.01837 14.5188L3.01784 14.5172C3.0173 14.5167 3.01571 14.5156 3.01757 14.5151C2.98463 14.4814 2.95856 14.4416 2.9408 14.3979C2.94027 14.3977 2.94054 14.3926 2.93762 14.3897C2.92013 14.3438 2.91052 14.2953 2.9092 14.2463V14.2447C2.90441 14.1464 2.92566 14.0223 2.99632 13.864C3.09673 13.6398 3.27523 13.3936 3.49862 13.1702L3.7329 12.9359H3.22024L2.98596 13.1702C2.7623 13.3936 2.5846 13.6401 2.48366 13.864C2.41221 14.0223 2.39229 14.1461 2.39654 14.2447V14.2463C2.39973 14.3028 2.40955 14.3504 2.4239 14.3897C2.42583 14.3922 2.42727 14.395 2.42815 14.3979C2.44966 14.4503 2.47862 14.4893 2.50491 14.5151C2.50598 14.5156 2.50598 14.5167 2.50704 14.5172C2.5081 14.5183 2.5081 14.5183 2.5081 14.5188C2.55884 14.569 2.64995 14.629 2.80029 14.629C2.88423 14.629 2.98091 14.6038 3.08291 14.5661C3.06079 14.5523 3.03998 14.5364 3.02076 14.5188" fill="#1C679A"/>
</g>
<defs>
<clipPath id="clip0_1910_4">
<rect width="17" height="17" fill="white"/>
</clipPath>
</defs>
</svg>
