<?xml version="1.0" encoding="UTF-8"?>
<!DOCTYPE svg PUBLIC "-//W3C//DTD SVG 1.1//EN" "http://www.w3.org/Graphics/SVG/1.1/DTD/svg11.dtd">
<svg xmlns="http://www.w3.org/2000/svg" version="1.1" width="94px" height="98px" style="shape-rendering:geometricPrecision; text-rendering:geometricPrecision; image-rendering:optimizeQuality; fill-rule:evenodd; clip-rule:evenodd" xmlns:xlink="http://www.w3.org/1999/xlink">
<g><path style="opacity:0.937" fill="#44a9d7" d="M 53.5,-0.5 C 56.5,-0.5 59.5,-0.5 62.5,-0.5C 67.1919,1.86176 70.5252,5.52843 72.5,10.5C 72.6567,11.8734 72.49,13.2068 72,14.5C 71.5291,12.7536 70.8624,11.087 70,9.5C 68.6859,13.7536 67.8526,18.087 67.5,22.5C 67.44,23.0431 67.1067,23.3764 66.5,23.5C 65.7022,21.9223 65.2022,20.2556 65,18.5C 64.3333,17.1667 63.6667,17.1667 63,18.5C 61.5619,17.0997 60.7286,15.433 60.5,13.5C 60.1667,12.8333 59.8333,12.1667 59.5,11.5C 60.2389,11.631 60.9056,11.4643 61.5,11C 60.1667,9 60.1667,7 61.5,5C 58.3035,4.19549 55.3035,4.36216 52.5,5.5C 50.1944,5.00745 47.861,4.67412 45.5,4.5C 48.1462,2.86456 50.8129,1.1979 53.5,-0.5 Z"/></g>
<g><path style="opacity:1" fill="#544d74" d="M 45.5,4.5 C 47.861,4.67412 50.1944,5.00745 52.5,5.5C 54.8082,7.47073 57.1415,9.47073 59.5,11.5C 59.8333,12.1667 60.1667,12.8333 60.5,13.5C 59.078,14.925 57.4113,15.925 55.5,16.5C 52.8037,10.9432 48.4703,9.10986 42.5,11C 37.9645,15.7033 33.2979,20.2033 28.5,24.5C 27.4479,22.744 25.7812,22.0773 23.5,22.5C 28.2969,17.202 33.2969,12.0354 38.5,7C 40.441,5.09719 42.7743,4.26386 45.5,4.5 Z"/></g>
<g><path style="opacity:1" fill="#4faeda" d="M 72.5,10.5 C 73.4614,12.2646 73.7947,14.2646 73.5,16.5C 85.5756,19.6505 90.2423,27.3172 87.5,39.5C 84.121,36.4493 80.7877,33.4493 77.5,30.5C 77.1667,29.8333 76.8333,29.1667 76.5,28.5C 77.5862,28.38 78.2528,27.7133 78.5,26.5C 78.1401,24.3921 77.4734,22.3921 76.5,20.5C 75.2322,19.5721 73.8989,19.4054 72.5,20C 73.4061,21.6995 73.7394,23.5328 73.5,25.5C 72.8333,25.1667 72.1667,24.8333 71.5,24.5C 70.1751,23.0474 69.3418,23.3808 69,25.5C 68.7679,24.2625 68.2679,23.2625 67.5,22.5C 67.8526,18.087 68.6859,13.7536 70,9.5C 70.8624,11.087 71.5291,12.7536 72,14.5C 72.49,13.2068 72.6567,11.8734 72.5,10.5 Z"/></g>
<g><path style="opacity:1" fill="#4ba0da" d="M 60.5,13.5 C 60.7286,15.433 61.5619,17.0997 63,18.5C 63.6667,17.1667 64.3333,17.1667 65,18.5C 65.2022,20.2556 65.7022,21.9223 66.5,23.5C 67.1067,23.3764 67.44,23.0431 67.5,22.5C 68.2679,23.2625 68.7679,24.2625 69,25.5C 69.3418,23.3808 70.1751,23.0474 71.5,24.5C 70.2702,26.2972 69.6036,28.2972 69.5,30.5C 67.4265,31.2995 65.7598,32.6329 64.5,34.5C 63.5041,34.4142 62.6708,34.7476 62,35.5C 61.1779,33.2115 60.5112,30.8782 60,28.5C 57.6041,25.9334 55.1041,23.6 52.5,21.5C 54.2785,20.3303 55.2785,18.6636 55.5,16.5C 57.4113,15.925 59.078,14.925 60.5,13.5 Z"/></g>
<g><path style="opacity:1" fill="#538fde" d="M 52.5,21.5 C 55.1041,23.6 57.6041,25.9334 60,28.5C 60.5112,30.8782 61.1779,33.2115 62,35.5C 62.6708,34.7476 63.5041,34.4142 64.5,34.5C 63.1667,36.5 61.5,38.1667 59.5,39.5C 55.5823,34.9155 51.2489,30.5822 46.5,26.5C 48.0905,24.3674 50.0905,22.7007 52.5,21.5 Z"/></g>
<g><path style="opacity:0.98" fill="#5f85e2" d="M 46.5,26.5 C 51.2489,30.5822 55.5823,34.9155 59.5,39.5C 58.4206,41.543 56.754,42.8763 54.5,43.5C 50.1603,38.8274 45.4936,34.4941 40.5,30.5C 42.2228,28.7819 44.2228,27.4486 46.5,26.5 Z"/></g>
<g><path style="opacity:1" fill="#514a71" d="M 71.5,24.5 C 72.1667,24.8333 72.8333,25.1667 73.5,25.5C 74.1667,26.8333 75.1667,27.8333 76.5,28.5C 76.8333,29.1667 77.1667,29.8333 77.5,30.5C 77.7409,33.0336 76.7409,34.7002 74.5,35.5C 73.1667,33.5 71.5,31.8333 69.5,30.5C 69.6036,28.2972 70.2702,26.2972 71.5,24.5 Z"/></g>
<g><path style="opacity:1" fill="#443e5b" d="M 23.5,22.5 C 25.7812,22.0773 27.4479,22.744 28.5,24.5C 21.5359,31.9649 14.3692,39.2982 7,46.5C 6.33333,49.1667 6.33333,51.8333 7,54.5C 7.42244,56.4257 8.5891,57.4257 10.5,57.5C 9.88972,59.4341 8.88972,61.1007 7.5,62.5C 4.47284,60.1395 1.80617,57.4729 -0.5,54.5C -0.5,51.8333 -0.5,49.1667 -0.5,46.5C 7.13961,38.1937 15.1396,30.1937 23.5,22.5 Z"/></g>
<g><path style="opacity:1" fill="#6c7de5" d="M 40.5,30.5 C 45.4936,34.4941 50.1603,38.8274 54.5,43.5C 53.4154,45.5869 51.7488,46.9202 49.5,47.5C 45.2203,44.2239 41.2203,40.5572 37.5,36.5C 36.675,35.6143 35.675,35.281 34.5,35.5C 36.0905,33.3674 38.0905,31.7007 40.5,30.5 Z"/></g>
<g><path style="opacity:1" fill="#7d71ea" d="M 34.5,35.5 C 35.675,35.281 36.675,35.6143 37.5,36.5C 41.2203,40.5572 45.2203,44.2239 49.5,47.5C 47.1051,50.8615 44.1051,53.5281 40.5,55.5C 37.1827,49.516 32.516,44.8494 26.5,41.5C 28.8003,39.016 31.4669,37.016 34.5,35.5 Z"/></g>
<g><path style="opacity:1" fill="#4d9cd9" d="M 77.5,30.5 C 80.7877,33.4493 84.121,36.4493 87.5,39.5C 87.5,39.8333 87.5,40.1667 87.5,40.5C 86.2616,42.2143 85.595,44.2143 85.5,46.5C 85.1667,46.5 84.8333,46.5 84.5,46.5C 82.2133,44.3914 79.8799,41.5581 77.5,38C 76.552,37.5172 75.552,37.3505 74.5,37.5C 74.5,36.8333 74.5,36.1667 74.5,35.5C 76.7409,34.7002 77.7409,33.0336 77.5,30.5 Z"/></g>
<g><path style="opacity:1" fill="#5b88e0" d="M 74.5,37.5 C 75.552,37.3505 76.552,37.5172 77.5,38C 79.8799,41.5581 82.2133,44.3914 84.5,46.5C 82.8606,48.8061 80.8606,50.8061 78.5,52.5C 75.126,50.1261 72.4593,47.1261 70.5,43.5C 72.2516,41.7541 73.5849,39.7541 74.5,37.5 Z"/></g>
<g><path style="opacity:1" fill="#565070" d="M 87.5,40.5 C 90.2109,42.2752 92.2109,44.6085 93.5,47.5C 93.5,49.5 93.5,51.5 93.5,53.5C 92.6153,56.06 90.9486,58.06 88.5,59.5C 87.0221,58.5525 86.0221,57.2191 85.5,55.5C 86.7752,52.3962 86.7752,49.3962 85.5,46.5C 85.595,44.2143 86.2616,42.2143 87.5,40.5 Z"/></g>
<g><path style="opacity:1" fill="#7277e7" d="M 70.5,43.5 C 72.4593,47.1261 75.126,50.1261 78.5,52.5C 76.5,55.1667 74.1667,57.5 71.5,59.5C 68.8815,56.2148 65.8815,53.2148 62.5,50.5C 64.5491,47.4503 67.2157,45.117 70.5,43.5 Z"/></g>
<g><path style="opacity:1" fill="#9563f1" d="M 26.5,41.5 C 32.516,44.8494 37.1827,49.516 40.5,55.5C 37.2059,58.1558 33.8726,60.8225 30.5,63.5C 28.8576,60.1671 25.8576,57.5005 21.5,55.5C 20.2011,56.09 19.3678,57.09 19,58.5C 17.8372,56.7148 17.1705,54.7148 17,52.5C 16.2303,53.5981 15.397,53.5981 14.5,52.5C 17.8744,48.1245 21.8744,44.4578 26.5,41.5 Z"/></g>
<g><path style="opacity:1" fill="#8569ec" d="M 62.5,50.5 C 65.8815,53.2148 68.8815,56.2148 71.5,59.5C 71.0269,60.9063 70.0269,61.573 68.5,61.5C 65.0108,60.5231 62.1775,58.5231 60,55.5C 59.2825,56.4506 58.4491,56.6172 57.5,56C 58.7383,55.31 58.7383,54.81 57.5,54.5C 58.5794,52.457 60.246,51.1237 62.5,50.5 Z"/></g>
<g><path style="opacity:1" fill="#995cf2" d="M 57.5,54.5 C 58.7383,54.81 58.7383,55.31 57.5,56C 58.4491,56.6172 59.2825,56.4506 60,55.5C 62.1775,58.5231 65.0108,60.5231 68.5,61.5C 66.4309,64.5725 63.7642,66.9059 60.5,68.5C 58.7159,65.9066 56.3825,63.74 53.5,62C 54.6843,60.8545 54.6843,59.6879 53.5,58.5C 54.5,56.8333 55.8333,55.5 57.5,54.5 Z"/></g>
<g><path style="opacity:1" fill="#b852fa" d="M 53.5,58.5 C 54.6843,59.6879 54.6843,60.8545 53.5,62C 56.3825,63.74 58.7159,65.9066 60.5,68.5C 56.5032,72.665 52.6699,76.9983 49,81.5C 43.7132,72.5223 45.2132,64.8557 53.5,58.5 Z"/></g>
<g><path style="opacity:0.768" fill="#bb5bf9" d="M 14.5,52.5 C 15.397,53.5981 16.2303,53.5981 17,52.5C 17.1705,54.7148 17.8372,56.7148 19,58.5C 19.3678,57.09 20.2011,56.09 21.5,55.5C 25.8576,57.5005 28.8576,60.1671 30.5,63.5C 27.7805,65.2193 25.7805,67.5526 24.5,70.5C 23.8333,71.1667 23.1667,71.8333 22.5,72.5C 22.5997,66.0301 20.933,65.8634 17.5,72C 16.2341,72.3095 15.0674,72.8095 14,73.5C 13.6667,72.8333 13.3333,72.1667 13,71.5C 11.2494,73.4899 10.2494,75.8232 10,78.5C 9.08529,77.6721 8.41862,76.6721 8,75.5C 7.51722,76.448 7.35055,77.448 7.5,78.5C 6.44104,73.3246 6.44104,67.9913 7.5,62.5C 8.88972,61.1007 9.88972,59.4341 10.5,57.5C 11.803,55.8577 13.1363,54.1911 14.5,52.5 Z"/></g>
<g><path style="opacity:1" fill="#312c47" d="M 85.5,55.5 C 86.0221,57.2191 87.0221,58.5525 88.5,59.5C 80.8333,67.8333 72.8333,75.8333 64.5,83.5C 63.0813,82.5489 61.4147,82.2155 59.5,82.5C 68.1667,73.5 76.8333,64.5 85.5,55.5 Z"/></g>
<g><path style="opacity:1" fill="#2d293e" d="M 24.5,70.5 C 24.3505,71.552 24.5172,72.552 25,73.5C 30.9037,80.0743 37.4037,85.9076 44.5,91C 47.4192,91.5516 50.0859,90.8849 52.5,89C 54.7032,86.6278 57.0365,84.4611 59.5,82.5C 61.4147,82.2155 63.0813,82.5489 64.5,83.5C 60.1396,88.5271 55.4729,93.1938 50.5,97.5C 47.8333,97.5 45.1667,97.5 42.5,97.5C 41.205,96.5116 39.8717,95.5116 38.5,94.5C 37.7377,92.7376 36.4044,91.7376 34.5,91.5C 31.4367,86.9281 27.77,82.7615 23.5,79C 22.552,78.5172 21.552,78.3505 20.5,78.5C 20.9707,76.4214 21.6373,74.4214 22.5,72.5C 23.1667,71.8333 23.8333,71.1667 24.5,70.5 Z"/></g>
<g><path style="opacity:1" fill="#c64dfd" d="M 22.5,72.5 C 21.6373,74.4214 20.9707,76.4214 20.5,78.5C 19.6416,89.3212 24.3083,93.6545 34.5,91.5C 36.4044,91.7376 37.7377,92.7376 38.5,94.5C 26.9589,98.2357 17.4589,95.2357 10,85.5C 8.58859,83.3496 7.75526,81.0163 7.5,78.5C 7.35055,77.448 7.51722,76.448 8,75.5C 8.41862,76.6721 9.08529,77.6721 10,78.5C 10.2494,75.8232 11.2494,73.4899 13,71.5C 13.3333,72.1667 13.6667,72.8333 14,73.5C 15.0674,72.8095 16.2341,72.3095 17.5,72C 20.933,65.8634 22.5997,66.0301 22.5,72.5 Z"/></g>
</svg>
