<svg>
<symbol id="next" width="24" height="24" viewBox="0 0 24 24" fill="currentColor" xmlns="http://www.w3.org/2000/svg">
<path d="M4 18L12.5 12L4 6V18ZM13 6V18L21.5 12L13 6Z"/>
</symbol>

<symbol id="pause-player" width="24" height="24" viewBox="0 0 24 24" fill="currentColor" xmlns="http://www.w3.org/2000/svg">
<path d="M6 19H10V5H6V19ZM14 5V19H18V5H14Z"/>
</symbol>

<symbol id="play" width="24" height="24" viewBox="0 0 24 24" fill="currentColor" xmlns="http://www.w3.org/2000/svg">
<path d="M8 5V19L19 12L8 5Z"/>
</symbol>

<symbol id="prev" width="24" height="24" viewBox="0 0 24 24" fill="currentColor" xmlns="http://www.w3.org/2000/svg">
<path d="M11 18V6L2.5 12L11 18ZM11.5 12L20 18V6L11.5 12Z"/>
</symbol>

<symbol id="stop" width="24" height="24" viewBox="0 0 24 24" fill="currentColor" xmlns="http://www.w3.org/2000/svg">
<path d="M6 6H18V18H6V6Z"/>
</symbol>

<svg id="favorite-player" width="24" height="24" viewBox="0 0 24 24" fill="currentColor" xmlns="http://www.w3.org/2000/svg">
<path d="M16.5 3C14.76 3 13.09 3.81 12 5.09C10.91 3.81 9.24 3 7.5 3C4.42 3 2 5.42 2 8.5C2 12.28 5.4 15.36 10.55 20.04L12 21.35L13.45 20.03C18.6 15.36 22 12.28 22 8.5C22 5.42 19.58 3 16.5 3ZM12.1 18.55L12 18.65L11.9 18.55C7.14 14.24 4 11.39 4 8.5C4 6.5 5.5 5 7.5 5C9.04 5 10.54 5.99 11.07 7.36H12.94C13.46 5.99 14.96 5 16.5 5C18.5 5 20 6.5 20 8.5C20 11.39 16.86 14.24 12.1 18.55Z"/>
</svg>

<symbol id="volume-off" width="24" height="24" viewBox="0 0 24 24" fill="currentColor" xmlns="http://www.w3.org/2000/svg">
<path d="M16.5 12C16.5 10.23 15.48 8.71 14 7.97V10.18L16.45 12.63C16.48 12.43 16.5 12.22 16.5 12ZM19 12C19 12.94 18.8 13.82 18.46 14.64L19.97 16.15C20.63 14.91 21 13.5 21 12C21 7.72 18.01 4.14 14 3.23V5.29C16.89 6.15 19 8.83 19 12ZM4.27 3L3 4.27L7.73 9H3V15H7L12 20V13.27L16.25 17.52C15.58 18.04 14.83 18.45 14 18.7V20.76C15.38 20.45 16.63 19.81 17.69 18.95L19.73 21L21 19.73L12 10.73L4.27 3ZM12 4L9.91 6.09L12 8.18V4Z"/>
</symbol>

<symbol id="volume-on" width="24" height="24" viewBox="0 0 24 24" fill="currentColor" xmlns="http://www.w3.org/2000/svg">
<path d="M3 9V15H7L12 20V4L7 9H3ZM16.5 12C16.5 10.23 15.48 8.71 14 7.97V16.02C15.48 15.29 16.5 13.77 16.5 12ZM14 3.23V5.29C16.89 6.15 19 8.83 19 12C19 15.17 16.89 17.85 14 18.71V20.77C18.01 19.86 21 16.28 21 12C21 7.72 18.01 4.14 14 3.23Z"/>
</symbol>

</svg>